<mxfile host="app.diagrams.net" agent="Mozilla/5.0 (X11; Linux x86_64) AppleWebKit/537.36 (KHTML, like Gecko) Chrome/125.0.0.0 Safari/537.36" version="26.0.5">
  <diagram name="第 1 页" id="1Tfa7L_At4pF71FGWeEv">
    <mxGraphModel dx="1430" dy="748" grid="1" gridSize="10" guides="1" tooltips="1" connect="1" arrows="1" fold="1" page="1" pageScale="1" pageWidth="827" pageHeight="1169" math="0" shadow="0">
      <root>
        <mxCell id="0" />
        <mxCell id="1" parent="0" />
        <mxCell id="XvO7fo_fdQMZP-SOIAJt-8" style="edgeStyle=orthogonalEdgeStyle;rounded=0;orthogonalLoop=1;jettySize=auto;html=1;entryX=0;entryY=0.5;entryDx=0;entryDy=0;" edge="1" parent="1" source="XvO7fo_fdQMZP-SOIAJt-2" target="XvO7fo_fdQMZP-SOIAJt-3">
          <mxGeometry relative="1" as="geometry" />
        </mxCell>
        <mxCell id="XvO7fo_fdQMZP-SOIAJt-2" value="Frame" style="rounded=0;whiteSpace=wrap;html=1;" vertex="1" parent="1">
          <mxGeometry x="80" y="95" width="50" height="50" as="geometry" />
        </mxCell>
        <mxCell id="XvO7fo_fdQMZP-SOIAJt-16" value="" style="swimlane;startSize=0;" vertex="1" parent="1">
          <mxGeometry x="194" y="50" width="440" height="120" as="geometry">
            <mxRectangle x="194" y="30" width="50" height="40" as="alternateBounds" />
          </mxGeometry>
        </mxCell>
        <mxCell id="XvO7fo_fdQMZP-SOIAJt-3" value="E&lt;span style=&quot;background-color: transparent; color: light-dark(rgb(0, 0, 0), rgb(255, 255, 255));&quot;&gt;xtract FAST Points&amp;nbsp;&lt;/span&gt;" style="rounded=0;whiteSpace=wrap;html=1;" vertex="1" parent="XvO7fo_fdQMZP-SOIAJt-16">
          <mxGeometry x="20" y="50" width="70" height="40" as="geometry" />
        </mxCell>
        <mxCell id="XvO7fo_fdQMZP-SOIAJt-5" value="Octree Filter" style="rounded=0;whiteSpace=wrap;html=1;" vertex="1" parent="XvO7fo_fdQMZP-SOIAJt-16">
          <mxGeometry x="130" y="50" width="50" height="40" as="geometry" />
        </mxCell>
        <mxCell id="XvO7fo_fdQMZP-SOIAJt-6" value="&lt;span style=&quot;background-color: transparent; color: light-dark(rgb(0, 0, 0), rgb(255, 255, 255));&quot;&gt;Generate Descriptors&amp;nbsp;&lt;/span&gt;" style="rounded=0;whiteSpace=wrap;html=1;" vertex="1" parent="XvO7fo_fdQMZP-SOIAJt-16">
          <mxGeometry x="219.5" y="50" width="80" height="40" as="geometry" />
        </mxCell>
        <mxCell id="XvO7fo_fdQMZP-SOIAJt-12" value="Key Points" style="rounded=0;whiteSpace=wrap;html=1;" vertex="1" parent="XvO7fo_fdQMZP-SOIAJt-16">
          <mxGeometry x="336" y="50" width="64" height="40" as="geometry" />
        </mxCell>
        <mxCell id="XvO7fo_fdQMZP-SOIAJt-13" style="edgeStyle=orthogonalEdgeStyle;rounded=0;orthogonalLoop=1;jettySize=auto;html=1;" edge="1" parent="XvO7fo_fdQMZP-SOIAJt-16" source="XvO7fo_fdQMZP-SOIAJt-6" target="XvO7fo_fdQMZP-SOIAJt-12">
          <mxGeometry relative="1" as="geometry" />
        </mxCell>
        <mxCell id="XvO7fo_fdQMZP-SOIAJt-9" style="edgeStyle=orthogonalEdgeStyle;rounded=0;orthogonalLoop=1;jettySize=auto;html=1;" edge="1" parent="XvO7fo_fdQMZP-SOIAJt-16" source="XvO7fo_fdQMZP-SOIAJt-3" target="XvO7fo_fdQMZP-SOIAJt-5">
          <mxGeometry relative="1" as="geometry" />
        </mxCell>
        <mxCell id="XvO7fo_fdQMZP-SOIAJt-10" style="edgeStyle=orthogonalEdgeStyle;rounded=0;orthogonalLoop=1;jettySize=auto;html=1;" edge="1" parent="XvO7fo_fdQMZP-SOIAJt-16" source="XvO7fo_fdQMZP-SOIAJt-5" target="XvO7fo_fdQMZP-SOIAJt-6">
          <mxGeometry relative="1" as="geometry" />
        </mxCell>
        <mxCell id="XvO7fo_fdQMZP-SOIAJt-19" value="" style="swimlane;startSize=0;" vertex="1" parent="1">
          <mxGeometry x="194" y="250" width="426" height="150" as="geometry" />
        </mxCell>
        <mxCell id="XvO7fo_fdQMZP-SOIAJt-11" value="Store Original FAST points" style="rounded=0;whiteSpace=wrap;html=1;" vertex="1" parent="XvO7fo_fdQMZP-SOIAJt-19">
          <mxGeometry x="26" y="20" width="80" height="40" as="geometry" />
        </mxCell>
        <mxCell id="XvO7fo_fdQMZP-SOIAJt-20" value="" style="swimlane;startSize=0;" vertex="1" parent="1">
          <mxGeometry x="690" y="50" width="190" height="480" as="geometry" />
        </mxCell>
        <mxCell id="XvO7fo_fdQMZP-SOIAJt-22" value="" style="rounded=0;whiteSpace=wrap;html=1;" vertex="1" parent="XvO7fo_fdQMZP-SOIAJt-20">
          <mxGeometry x="35" y="40" width="120" height="60" as="geometry" />
        </mxCell>
      </root>
    </mxGraphModel>
  </diagram>
</mxfile>
